<?xml version="1.0" encoding="utf-8"?>
<!-- Svg Vector Icons : http://www.onlinewebfonts.com/icon -->
<!DOCTYPE svg PUBLIC "-//W3C//DTD SVG 1.1//EN" "http://www.w3.org/Graphics/SVG/1.1/DTD/svg11.dtd">
<svg version="1.1" xmlns="http://www.w3.org/2000/svg" xmlns:xlink="http://www.w3.org/1999/xlink" x="0px" y="0px" viewBox="0 0 256 256" enable-background="new 0 0 256 256" xml:space="preserve">
<metadata> Svg Vector Icons : http://www.onlinewebfonts.com/icon </metadata>
<g><g><path fill="#000000" d="M128,246c-65.1,0-118-52.9-118-118C10,62.9,62.9,10,128,10c65.1,0,118,52.9,118,118C246,193.1,193.1,246,128,246z M128,26.9C72.2,26.9,26.9,72.2,26.9,128c0,55.8,45.4,101.1,101.1,101.1c55.8,0,101.1-45.4,101.1-101.1C229.1,72.2,183.8,26.9,128,26.9z M128,136.4c-27.9,0-50.5,22.6-50.5,50.5H60.6c0-27.3,16.2-50.7,39.5-61.3c-8.7-7.7-14.2-18.8-14.2-31.4c0-23.3,18.9-42.1,42.1-42.1c23.3,0,42.1,18.9,42.1,42.1c0,12.5-5.6,23.6-14.2,31.4c23.3,10.6,39.5,34,39.5,61.3h-16.9C178.5,159,155.9,136.4,128,136.4z M128,69c-14,0-25.3,11.3-25.3,25.3c0,13.9,11.3,25.3,25.3,25.3c14,0,25.3-11.3,25.3-25.3C153.3,80.4,142,69,128,69z"/></g></g>
</svg>